# MagicaVoxel @ Ephtracy

# group
o 

# material
mtllib Player.mtl
usemtl palette

# normals
vn -1 0 0
vn 1 0 0
vn 0 0 1
vn 0 0 -1
vn 0 -1 0
vn 0 1 0

# texcoords
vt 0.00195312 0.5
vt 0.0136719 0.5
vt 0.0253906 0.5
vt 0.0917969 0.5
vt 0.111328 0.5
vt 0.994141 0.5

# verts
v -0.4 0.3 0.1
v -0.4 0.3 -0.1
v -0.4 0.6 0.4
v -0.4 0.6 0.3
v -0.4 0.6 0.1
v -0.4 0.6 -0.1
v -0.4 0.6 -0.3
v -0.4 0.6 -0.4
v -0.4 0.7 0.4
v -0.4 0.7 0.3
v -0.4 0.7 -0.3
v -0.4 0.7 -0.4
v -0.3 0.2 0.1
v -0.3 0.2 -0.1
v -0.3 0.3 0.2
v -0.3 0.3 0.1
v -0.3 0.3 -0.1
v -0.3 0.3 -0.2
v -0.3 0.5 0.4
v -0.3 0.5 0.3
v -0.3 0.5 -0.3
v -0.3 0.5 -0.4
v -0.3 0.6 0.4
v -0.3 0.6 0.3
v -0.3 0.6 0.2
v -0.3 0.6 0.1
v -0.3 0.6 -0.1
v -0.3 0.6 -0.2
v -0.3 0.6 -0.3
v -0.3 0.6 -0.4
v -0.3 0.7 0.3
v -0.3 0.7 0.2
v -0.3 0.7 0.1
v -0.3 0.7 -0.1
v -0.3 0.7 -0.2
v -0.3 0.7 -0.3
v -0.2 0.1 0.1
v -0.2 0.1 -0.1
v -0.2 0.2 0.2
v -0.2 0.2 0.1
v -0.2 0.2 -0.1
v -0.2 0.2 -0.2
v -0.2 0.3 0.2
v -0.2 0.3 0.1
v -0.2 0.3 -0.1
v -0.2 0.3 -0.2
v -0.2 0.5 0.3
v -0.2 0.5 0.2
v -0.2 0.5 -0.2
v -0.2 0.5 -0.3
v -0.2 0.6 0.3
v -0.2 0.6 0.2
v -0.2 0.6 -0.2
v -0.2 0.6 -0.3
v -0.2 0.7 0.1
v -0.2 0.7 -0.1
v -0.2 0.8 0.1
v -0.2 0.8 -0.1
v -0.1 0.1 0.2
v -0.1 0.1 0.1
v -0.1 0.1 -0.1
v -0.1 0.1 -0.2
v -0.1 0.2 0.3
v -0.1 0.2 0.2
v -0.1 0.2 0.1
v -0.1 0.2 -0.1
v -0.1 0.2 -0.2
v -0.1 0.2 -0.3
v -0.1 0.4 0.4
v -0.1 0.4 0.3
v -0.1 0.4 -0.3
v -0.1 0.4 -0.4
v -0.1 0.5 0.4
v -0.1 0.5 0.3
v -0.1 0.5 0.2
v -0.1 0.5 -0.2
v -0.1 0.5 -0.3
v -0.1 0.5 -0.4
v -0.1 0.6 0.2
v -0.1 0.6 0.1
v -0.1 0.6 -0.1
v -0.1 0.6 -0.2
v -0.1 0.7 0.2
v -0.1 0.7 0.1
v -0.1 0.7 -0.1
v -0.1 0.7 -0.2
v 0 0.7 0.2
v 0 0.7 0.1
v 0 0.8 0.2
v 0 0.8 0.1
v 0.1 0.3 0.1
v 0.1 0.3 -0.1
v 0.1 0.4 0.1
v 0.1 0.4 -0.1
v -0.1 0.3 0.1
v -0.1 0.3 0
v -0.1 0.4 0.1
v -0.1 0.4 0
v -0.1 0.6 0.3
v -0.1 0.6 0.2
v -0.1 0.6 -0.2
v -0.1 0.6 -0.3
v -0.1 0.7 0.3
v -0.1 0.7 0.2
v -0.1 0.7 -0.2
v -0.1 0.7 -0.3
v 0 0.3 0
v 0 0.3 -0.1
v 0 0.4 0.4
v 0 0.4 0.3
v 0 0.4 0
v 0 0.4 -0.1
v 0 0.4 -0.3
v 0 0.4 -0.4
v 0 0.5 0.3
v 0 0.5 0.2
v 0 0.5 -0.2
v 0 0.5 -0.3
v 0 0.6 0.3
v 0 0.6 0.2
v 0 0.6 -0.2
v 0 0.6 -0.3
v 0 0.7 0.4
v 0 0.7 0.3
v 0 0.7 -0.3
v 0 0.7 -0.4
v 0.1 0.1 0.2
v 0.1 0.1 -0.2
v 0.1 0.2 0.3
v 0.1 0.2 0.2
v 0.1 0.2 0.1
v 0.1 0.2 -0.1
v 0.1 0.2 -0.2
v 0.1 0.2 -0.3
v 0.1 0.3 0.2
v 0.1 0.3 0.1
v 0.1 0.3 -0.1
v 0.1 0.3 -0.2
v 0.1 0.4 0.3
v 0.1 0.4 0.2
v 0.1 0.4 -0.2
v 0.1 0.4 -0.3
v 0.1 0.6 0.2
v 0.1 0.6 0.1
v 0.1 0.6 -0.1
v 0.1 0.6 -0.2
v 0.1 0.7 0.2
v 0.1 0.7 0.1
v 0.1 0.7 -0.1
v 0.1 0.7 -0.2
v 0.1 0.8 0.2
v 0.1 0.8 0.1
v 0.1 0.8 -0.1
v 0.2 0.2 0.1
v 0.2 0.2 -0.1
v 0.2 0.3 0.2
v 0.2 0.3 0.1
v 0.2 0.3 -0.1
v 0.2 0.3 -0.2
v 0.2 0.4 0.3
v 0.2 0.4 0.2
v 0.2 0.4 -0.2
v 0.2 0.4 -0.3
v 0.2 0.5 0.3
v 0.2 0.5 0.2
v 0.2 0.5 0.1
v 0.2 0.5 -0.1
v 0.2 0.5 -0.2
v 0.2 0.5 -0.3
v 0.2 0.6 0.2
v 0.2 0.6 0.1
v 0.2 0.6 -0.1
v 0.2 0.6 -0.2
v 0.2 0.7 0.1
v 0.2 0.7 -0.1
v 0.3 0.3 0.1
v 0.3 0.3 -0.1
v 0.3 0.4 0.1
v 0.3 0.4 -0.1
v 0.3 0.5 0.1
v 0.3 0.5 -0.1
v 0.3 0.6 0.1
v 0.3 0.6 -0.1
v 0.4 0.4 0.1
v 0.4 0.4 -0.1
v 0.4 0.5 0.1
v 0.4 0.5 -0.1
v -0.4 0.6 0.4
v -0.4 0.7 0.4
v -0.3 0.5 0.4
v -0.3 0.6 0.4
v -0.1 0.4 0.4
v -0.1 0.5 0.4
v 0 0.4 0.4
v 0 0.7 0.4
v -0.1 0.2 0.3
v -0.1 0.4 0.3
v 0 0.4 0.3
v 0 0.5 0.3
v 0.1 0.2 0.3
v 0.1 0.4 0.3
v 0.1 0.5 0.3
v 0.2 0.4 0.3
v 0.2 0.5 0.3
v -0.3 0.3 0.2
v -0.3 0.6 0.2
v -0.2 0.2 0.2
v -0.2 0.3 0.2
v -0.2 0.5 0.2
v -0.2 0.6 0.2
v -0.1 0.1 0.2
v -0.1 0.2 0.2
v -0.1 0.5 0.2
v -0.1 0.6 0.2
v -0.1 0.7 0.2
v 0 0.5 0.2
v 0 0.6 0.2
v 0 0.7 0.2
v 0 0.8 0.2
v 0.1 0.1 0.2
v 0.1 0.2 0.2
v 0.1 0.3 0.2
v 0.1 0.4 0.2
v 0.1 0.5 0.2
v 0.1 0.6 0.2
v 0.1 0.7 0.2
v 0.1 0.8 0.2
v 0.2 0.3 0.2
v 0.2 0.4 0.2
v 0.2 0.5 0.2
v 0.2 0.6 0.2
v -0.4 0.3 0.1
v -0.4 0.6 0.1
v -0.3 0.2 0.1
v -0.3 0.3 0.1
v -0.3 0.6 0.1
v -0.3 0.7 0.1
v -0.2 0.1 0.1
v -0.2 0.2 0.1
v -0.2 0.3 0.1
v -0.2 0.7 0.1
v -0.2 0.8 0.1
v -0.1 0.1 0.1
v -0.1 0.2 0.1
v -0.1 0.6 0.1
v -0.1 0.7 0.1
v 0 0.7 0.1
v 0 0.8 0.1
v 0.1 0.2 0.1
v 0.1 0.3 0.1
v 0.1 0.6 0.1
v 0.1 0.7 0.1
v 0.2 0.2 0.1
v 0.2 0.3 0.1
v 0.2 0.5 0.1
v 0.2 0.6 0.1
v 0.2 0.7 0.1
v 0.3 0.3 0.1
v 0.3 0.4 0.1
v 0.3 0.5 0.1
v 0.3 0.6 0.1
v 0.4 0.4 0.1
v 0.4 0.5 0.1
v -0.1 0.3 0
v -0.1 0.4 0
v 0 0.3 0
v 0 0.4 0
v 0 0.3 -0.1
v 0 0.4 -0.1
v 0.1 0.3 -0.1
v 0.1 0.4 -0.1
v -0.3 0.6 -0.2
v -0.3 0.7 -0.2
v -0.1 0.6 -0.2
v -0.1 0.7 -0.2
v -0.4 0.6 -0.3
v -0.4 0.7 -0.3
v -0.3 0.5 -0.3
v -0.3 0.6 -0.3
v -0.3 0.7 -0.3
v -0.2 0.5 -0.3
v -0.2 0.6 -0.3
v -0.1 0.6 -0.3
v -0.1 0.7 -0.3
v 0 0.6 -0.3
v 0 0.7 -0.3
v -0.4 0.6 0.3
v -0.4 0.7 0.3
v -0.3 0.5 0.3
v -0.3 0.6 0.3
v -0.3 0.7 0.3
v -0.2 0.5 0.3
v -0.2 0.6 0.3
v -0.1 0.6 0.3
v -0.1 0.7 0.3
v 0 0.6 0.3
v 0 0.7 0.3
v -0.3 0.6 0.2
v -0.3 0.7 0.2
v -0.1 0.6 0.2
v -0.1 0.7 0.2
v -0.1 0.3 0.1
v -0.1 0.4 0.1
v 0.1 0.3 0.1
v 0.1 0.4 0.1
v -0.4 0.3 -0.1
v -0.4 0.6 -0.1
v -0.3 0.2 -0.1
v -0.3 0.3 -0.1
v -0.3 0.6 -0.1
v -0.3 0.7 -0.1
v -0.2 0.1 -0.1
v -0.2 0.2 -0.1
v -0.2 0.3 -0.1
v -0.2 0.7 -0.1
v -0.2 0.8 -0.1
v -0.1 0.1 -0.1
v -0.1 0.2 -0.1
v -0.1 0.6 -0.1
v -0.1 0.7 -0.1
v 0.1 0.2 -0.1
v 0.1 0.3 -0.1
v 0.1 0.6 -0.1
v 0.1 0.7 -0.1
v 0.1 0.8 -0.1
v 0.2 0.2 -0.1
v 0.2 0.3 -0.1
v 0.2 0.5 -0.1
v 0.2 0.6 -0.1
v 0.2 0.7 -0.1
v 0.3 0.3 -0.1
v 0.3 0.4 -0.1
v 0.3 0.5 -0.1
v 0.3 0.6 -0.1
v 0.4 0.4 -0.1
v 0.4 0.5 -0.1
v -0.3 0.3 -0.2
v -0.3 0.6 -0.2
v -0.2 0.2 -0.2
v -0.2 0.3 -0.2
v -0.2 0.5 -0.2
v -0.2 0.6 -0.2
v -0.1 0.1 -0.2
v -0.1 0.2 -0.2
v -0.1 0.5 -0.2
v -0.1 0.6 -0.2
v -0.1 0.7 -0.2
v 0 0.5 -0.2
v 0 0.6 -0.2
v 0.1 0.1 -0.2
v 0.1 0.2 -0.2
v 0.1 0.3 -0.2
v 0.1 0.4 -0.2
v 0.1 0.5 -0.2
v 0.1 0.6 -0.2
v 0.1 0.7 -0.2
v 0.2 0.3 -0.2
v 0.2 0.4 -0.2
v 0.2 0.5 -0.2
v 0.2 0.6 -0.2
v -0.1 0.2 -0.3
v -0.1 0.4 -0.3
v 0 0.4 -0.3
v 0 0.5 -0.3
v 0.1 0.2 -0.3
v 0.1 0.4 -0.3
v 0.1 0.5 -0.3
v 0.2 0.4 -0.3
v 0.2 0.5 -0.3
v -0.4 0.6 -0.4
v -0.4 0.7 -0.4
v -0.3 0.5 -0.4
v -0.3 0.6 -0.4
v -0.1 0.4 -0.4
v -0.1 0.5 -0.4
v 0 0.4 -0.4
v 0 0.7 -0.4
v -0.1 0.1 0.2
v 0.1 0.1 0.2
v -0.2 0.1 0.1
v -0.1 0.1 0.1
v -0.2 0.1 -0.1
v -0.1 0.1 -0.1
v -0.1 0.1 -0.2
v 0.1 0.1 -0.2
v -0.1 0.2 0.3
v 0.1 0.2 0.3
v -0.2 0.2 0.2
v -0.1 0.2 0.2
v 0.1 0.2 0.2
v -0.3 0.2 0.1
v -0.2 0.2 0.1
v -0.1 0.2 0.1
v 0.1 0.2 0.1
v 0.2 0.2 0.1
v -0.3 0.2 -0.1
v -0.2 0.2 -0.1
v -0.1 0.2 -0.1
v 0.1 0.2 -0.1
v 0.2 0.2 -0.1
v -0.2 0.2 -0.2
v -0.1 0.2 -0.2
v 0.1 0.2 -0.2
v -0.1 0.2 -0.3
v 0.1 0.2 -0.3
v -0.3 0.3 0.2
v -0.2 0.3 0.2
v 0.1 0.3 0.2
v 0.2 0.3 0.2
v -0.4 0.3 0.1
v -0.3 0.3 0.1
v -0.2 0.3 0.1
v 0.1 0.3 0.1
v 0.2 0.3 0.1
v 0.3 0.3 0.1
v -0.4 0.3 -0.1
v -0.3 0.3 -0.1
v -0.2 0.3 -0.1
v 0.1 0.3 -0.1
v 0.2 0.3 -0.1
v 0.3 0.3 -0.1
v -0.3 0.3 -0.2
v -0.2 0.3 -0.2
v 0.1 0.3 -0.2
v 0.2 0.3 -0.2
v -0.1 0.4 0.4
v 0 0.4 0.4
v -0.1 0.4 0.3
v 0 0.4 0.3
v 0.1 0.4 0.3
v 0.2 0.4 0.3
v 0.1 0.4 0.2
v 0.2 0.4 0.2
v -0.1 0.4 0.1
v 0.1 0.4 0.1
v 0.3 0.4 0.1
v 0.4 0.4 0.1
v -0.1 0.4 0
v 0 0.4 0
v 0 0.4 -0.1
v 0.1 0.4 -0.1
v 0.3 0.4 -0.1
v 0.4 0.4 -0.1
v 0.1 0.4 -0.2
v 0.2 0.4 -0.2
v -0.1 0.4 -0.3
v 0 0.4 -0.3
v 0.1 0.4 -0.3
v 0.2 0.4 -0.3
v -0.1 0.4 -0.4
v 0 0.4 -0.4
v -0.3 0.5 0.4
v -0.1 0.5 0.4
v -0.3 0.5 0.3
v -0.2 0.5 0.3
v -0.1 0.5 0.3
v -0.2 0.5 0.2
v -0.1 0.5 0.2
v -0.2 0.5 -0.2
v -0.1 0.5 -0.2
v -0.3 0.5 -0.3
v -0.2 0.5 -0.3
v -0.1 0.5 -0.3
v -0.3 0.5 -0.4
v -0.1 0.5 -0.4
v -0.4 0.6 0.4
v -0.3 0.6 0.4
v -0.4 0.6 0.3
v -0.3 0.6 0.3
v -0.2 0.6 0.3
v -0.3 0.6 0.2
v -0.2 0.6 0.2
v -0.3 0.6 -0.2
v -0.2 0.6 -0.2
v -0.4 0.6 -0.3
v -0.3 0.6 -0.3
v -0.2 0.6 -0.3
v -0.4 0.6 -0.4
v -0.3 0.6 -0.4
v -0.1 0.3 0.1
v 0.1 0.3 0.1
v -0.1 0.3 0
v 0 0.3 0
v 0 0.3 -0.1
v 0.1 0.3 -0.1
v 0 0.5 0.3
v 0.1 0.5 0.3
v 0.2 0.5 0.3
v 0 0.5 0.2
v 0.1 0.5 0.2
v 0.2 0.5 0.2
v 0.3 0.5 0.1
v 0.4 0.5 0.1
v 0.3 0.5 -0.1
v 0.4 0.5 -0.1
v 0 0.5 -0.2
v 0.1 0.5 -0.2
v 0.2 0.5 -0.2
v 0 0.5 -0.3
v 0.1 0.5 -0.3
v 0.2 0.5 -0.3
v -0.1 0.6 0.3
v 0 0.6 0.3
v -0.3 0.6 0.2
v -0.1 0.6 0.2
v 0 0.6 0.2
v 0.1 0.6 0.2
v 0.2 0.6 0.2
v -0.4 0.6 0.1
v -0.3 0.6 0.1
v -0.1 0.6 0.1
v 0.1 0.6 0.1
v 0.2 0.6 0.1
v 0.3 0.6 0.1
v -0.4 0.6 -0.1
v -0.3 0.6 -0.1
v -0.1 0.6 -0.1
v 0.1 0.6 -0.1
v 0.2 0.6 -0.1
v 0.3 0.6 -0.1
v -0.3 0.6 -0.2
v -0.1 0.6 -0.2
v 0 0.6 -0.2
v 0.1 0.6 -0.2
v 0.2 0.6 -0.2
v -0.1 0.6 -0.3
v 0 0.6 -0.3
v -0.4 0.7 0.4
v 0 0.7 0.4
v -0.4 0.7 0.3
v -0.3 0.7 0.3
v -0.1 0.7 0.3
v 0 0.7 0.3
v -0.3 0.7 0.2
v -0.1 0.7 0.2
v 0 0.7 0.2
v -0.3 0.7 0.1
v -0.2 0.7 0.1
v -0.1 0.7 0.1
v 0 0.7 0.1
v 0.1 0.7 0.1
v 0.2 0.7 0.1
v -0.3 0.7 -0.1
v -0.2 0.7 -0.1
v -0.1 0.7 -0.1
v 0.1 0.7 -0.1
v 0.2 0.7 -0.1
v -0.3 0.7 -0.2
v -0.1 0.7 -0.2
v 0.1 0.7 -0.2
v -0.4 0.7 -0.3
v -0.3 0.7 -0.3
v -0.1 0.7 -0.3
v 0 0.7 -0.3
v -0.4 0.7 -0.4
v 0 0.7 -0.4
v 0 0.8 0.2
v 0.1 0.8 0.2
v -0.2 0.8 0.1
v 0 0.8 0.1
v 0.1 0.8 0.1
v -0.2 0.8 -0.1
v 0.1 0.8 -0.1

# faces
f 5/2/1 2/2/1 1/2/1
f 6/2/1 2/2/1 5/2/1
f 9/1/1 4/1/1 3/1/1
f 10/1/1 4/1/1 9/1/1
f 11/1/1 8/1/1 7/1/1
f 12/1/1 8/1/1 11/1/1
f 16/2/1 14/2/1 13/2/1
f 17/2/1 14/2/1 16/2/1
f 23/1/1 20/1/1 19/1/1
f 24/1/1 20/1/1 23/1/1
f 25/2/1 16/2/1 15/2/1
f 26/2/1 16/2/1 25/2/1
f 27/2/1 18/2/1 17/2/1
f 28/2/1 18/2/1 27/2/1
f 29/1/1 22/1/1 21/1/1
f 30/1/1 22/1/1 29/1/1
f 31/1/1 25/1/1 24/1/1
f 32/1/1 25/1/1 31/1/1
f 33/2/1 27/2/1 26/2/1
f 34/2/1 27/2/1 33/2/1
f 35/1/1 29/1/1 28/1/1
f 36/1/1 29/1/1 35/1/1
f 40/2/1 38/2/1 37/2/1
f 41/2/1 38/2/1 40/2/1
f 43/2/1 40/2/1 39/2/1
f 44/2/1 40/2/1 43/2/1
f 45/2/1 42/2/1 41/2/1
f 46/2/1 42/2/1 45/2/1
f 51/1/1 48/1/1 47/1/1
f 52/1/1 48/1/1 51/1/1
f 53/1/1 50/1/1 49/1/1
f 54/1/1 50/1/1 53/1/1
f 57/2/1 56/2/1 55/2/1
f 58/2/1 56/2/1 57/2/1
f 64/2/1 60/2/1 59/2/1
f 65/2/1 60/2/1 64/2/1
f 66/2/1 62/2/1 61/2/1
f 67/2/1 62/2/1 66/2/1
f 70/2/1 64/2/1 63/2/1
f 71/2/1 68/2/1 67/2/1
f 73/1/1 70/1/1 69/1/1
f 74/2/1 64/2/1 70/2/1
f 74/1/1 70/1/1 73/1/1
f 75/2/1 64/2/1 74/2/1
f 76/2/1 71/2/1 67/2/1
f 77/1/1 72/1/1 71/1/1
f 77/2/1 71/2/1 76/2/1
f 78/1/1 72/1/1 77/1/1
f 83/2/1 80/2/1 79/2/1
f 84/2/1 80/2/1 83/2/1
f 85/2/1 82/2/1 81/2/1
f 86/2/1 82/2/1 85/2/1
f 89/5/1 88/5/1 87/5/1
f 90/5/1 88/5/1 89/5/1
f 93/2/1 92/2/1 91/2/1
f 94/2/1 92/2/1 93/2/1
f 95/2/2 96/2/2 97/2/2
f 97/2/2 96/2/2 98/2/2
f 99/1/2 100/1/2 103/1/2
f 103/1/2 100/1/2 104/1/2
f 101/1/2 102/1/2 105/1/2
f 105/1/2 102/1/2 106/1/2
f 107/2/2 108/2/2 111/2/2
f 111/2/2 108/2/2 112/2/2
f 109/1/2 110/1/2 115/1/2
f 113/1/2 114/1/2 118/1/2
f 115/1/2 116/1/2 119/1/2
f 109/1/2 115/1/2 119/1/2
f 119/1/2 116/1/2 120/1/2
f 117/1/2 118/1/2 121/1/2
f 118/1/2 114/1/2 122/1/2
f 121/1/2 118/1/2 122/1/2
f 109/1/2 119/1/2 123/1/2
f 123/1/2 119/1/2 124/1/2
f 122/1/2 114/1/2 125/1/2
f 125/1/2 114/1/2 126/1/2
f 127/2/2 128/2/2 130/2/2
f 130/2/2 128/2/2 131/2/2
f 131/2/2 128/2/2 132/2/2
f 132/2/2 128/2/2 133/2/2
f 129/2/2 130/2/2 135/2/2
f 130/2/2 131/2/2 135/2/2
f 135/2/2 131/2/2 136/2/2
f 133/2/2 134/2/2 137/2/2
f 132/2/2 133/2/2 137/2/2
f 137/2/2 134/2/2 138/2/2
f 129/2/2 135/2/2 139/2/2
f 139/2/2 135/2/2 140/2/2
f 138/2/2 134/2/2 141/2/2
f 141/2/2 134/2/2 142/2/2
f 143/2/2 144/2/2 147/2/2
f 147/2/2 144/2/2 148/2/2
f 145/2/2 146/2/2 149/2/2
f 149/2/2 146/2/2 150/2/2
f 147/5/2 148/5/2 151/5/2
f 148/2/2 149/2/2 152/2/2
f 151/5/2 148/5/2 152/5/2
f 152/2/2 149/2/2 153/2/2
f 154/2/2 155/2/2 157/2/2
f 157/2/2 155/2/2 158/2/2
f 156/2/2 157/2/2 161/2/2
f 158/2/2 159/2/2 162/2/2
f 160/3/2 161/3/2 164/3/2
f 161/2/2 157/2/2 165/2/2
f 164/3/2 161/3/2 165/3/2
f 165/2/2 157/2/2 166/2/2
f 158/2/2 162/2/2 167/2/2
f 162/3/2 163/3/2 168/3/2
f 167/2/2 162/2/2 168/2/2
f 168/3/2 163/3/2 169/3/2
f 165/6/2 166/6/2 170/6/2
f 170/6/2 166/6/2 171/6/2
f 167/6/2 168/6/2 172/6/2
f 172/6/2 168/6/2 173/6/2
f 171/2/2 172/2/2 174/2/2
f 174/2/2 172/2/2 175/2/2
f 176/4/2 177/4/2 178/4/2
f 178/4/2 177/4/2 179/4/2
f 180/4/2 181/4/2 182/4/2
f 182/4/2 181/4/2 183/4/2
f 184/4/2 185/4/2 186/4/2
f 186/4/2 185/4/2 187/4/2
f 191/1/3 189/1/3 188/1/3
f 193/1/3 191/1/3 190/1/3
f 194/1/3 193/1/3 192/1/3
f 195/1/3 189/1/3 191/1/3
f 195/1/3 193/1/3 194/1/3
f 195/1/3 191/1/3 193/1/3
f 198/2/3 197/2/3 196/2/3
f 200/2/3 198/2/3 196/2/3
f 200/2/3 199/2/3 198/2/3
f 201/2/3 199/2/3 200/2/3
f 202/2/3 199/2/3 201/2/3
f 203/3/3 202/3/3 201/3/3
f 204/3/3 202/3/3 203/3/3
f 208/2/3 206/2/3 205/2/3
f 209/2/3 206/2/3 208/2/3
f 210/2/3 206/2/3 209/2/3
f 212/2/3 208/2/3 207/2/3
f 212/2/3 209/2/3 208/2/3
f 213/2/3 209/2/3 212/2/3
f 217/2/3 215/2/3 214/2/3
f 218/2/3 215/2/3 217/2/3
f 220/2/3 212/2/3 211/2/3
f 221/2/3 212/2/3 220/2/3
f 224/2/3 217/2/3 216/2/3
f 224/2/3 218/2/3 217/2/3
f 225/2/3 218/2/3 224/2/3
f 226/5/3 219/5/3 218/5/3
f 226/2/3 218/2/3 225/2/3
f 227/5/3 219/5/3 226/5/3
f 228/2/3 223/2/3 222/2/3
f 229/2/3 223/2/3 228/2/3
f 230/6/3 225/6/3 224/6/3
f 231/6/3 225/6/3 230/6/3
f 235/2/3 233/2/3 232/2/3
f 236/2/3 233/2/3 235/2/3
f 239/2/3 235/2/3 234/2/3
f 240/2/3 235/2/3 239/2/3
f 241/2/3 237/2/3 236/2/3
f 243/2/3 239/2/3 238/2/3
f 244/2/3 239/2/3 243/2/3
f 245/2/3 242/2/3 241/2/3
f 245/2/3 241/2/3 236/2/3
f 246/2/3 242/2/3 245/2/3
f 247/2/3 242/2/3 246/2/3
f 248/2/3 242/2/3 247/2/3
f 253/2/3 250/2/3 249/2/3
f 254/2/3 250/2/3 253/2/3
f 256/2/3 252/2/3 251/2/3
f 257/2/3 252/2/3 256/2/3
f 258/4/3 255/4/3 254/4/3
f 258/4/3 256/4/3 255/4/3
f 259/4/3 256/4/3 258/4/3
f 260/4/3 256/4/3 259/4/3
f 261/4/3 256/4/3 260/4/3
f 262/4/3 260/4/3 259/4/3
f 263/4/3 260/4/3 262/4/3
f 266/2/3 265/2/3 264/2/3
f 267/2/3 265/2/3 266/2/3
f 270/2/3 269/2/3 268/2/3
f 271/2/3 269/2/3 270/2/3
f 274/1/3 273/1/3 272/1/3
f 275/1/3 273/1/3 274/1/3
f 279/1/3 277/1/3 276/1/3
f 280/1/3 277/1/3 279/1/3
f 281/1/3 279/1/3 278/1/3
f 282/1/3 279/1/3 281/1/3
f 285/1/3 284/1/3 283/1/3
f 286/1/3 284/1/3 285/1/3
f 287/1/4 288/1/4 290/1/4
f 290/1/4 288/1/4 291/1/4
f 289/1/4 290/1/4 292/1/4
f 292/1/4 290/1/4 293/1/4
f 294/1/4 295/1/4 296/1/4
f 296/1/4 295/1/4 297/1/4
f 298/1/4 299/1/4 300/1/4
f 300/1/4 299/1/4 301/1/4
f 302/2/4 303/2/4 304/2/4
f 304/2/4 303/2/4 305/2/4
f 306/2/4 307/2/4 309/2/4
f 309/2/4 307/2/4 310/2/4
f 308/2/4 309/2/4 313/2/4
f 313/2/4 309/2/4 314/2/4
f 310/2/4 311/2/4 315/2/4
f 312/2/4 313/2/4 317/2/4
f 317/2/4 313/2/4 318/2/4
f 315/2/4 316/2/4 319/2/4
f 310/2/4 315/2/4 319/2/4
f 319/2/4 316/2/4 320/2/4
f 320/2/4 316/2/4 324/2/4
f 324/2/4 316/2/4 325/2/4
f 321/2/4 322/2/4 326/2/4
f 326/2/4 322/2/4 327/2/4
f 323/2/4 324/2/4 329/2/4
f 329/2/4 324/2/4 330/2/4
f 327/4/4 328/4/4 331/4/4
f 328/4/4 329/4/4 331/4/4
f 331/4/4 329/4/4 332/4/4
f 332/4/4 329/4/4 333/4/4
f 333/4/4 329/4/4 334/4/4
f 332/4/4 333/4/4 335/4/4
f 335/4/4 333/4/4 336/4/4
f 337/2/4 338/2/4 340/2/4
f 340/2/4 338/2/4 341/2/4
f 341/2/4 338/2/4 342/2/4
f 339/2/4 340/2/4 344/2/4
f 340/2/4 341/2/4 344/2/4
f 344/2/4 341/2/4 345/2/4
f 346/2/4 347/2/4 349/2/4
f 343/2/4 344/2/4 350/2/4
f 350/2/4 344/2/4 351/2/4
f 348/2/4 349/2/4 354/2/4
f 349/2/4 347/2/4 355/2/4
f 354/2/4 349/2/4 355/2/4
f 355/2/4 347/2/4 356/2/4
f 352/2/4 353/2/4 357/2/4
f 357/2/4 353/2/4 358/2/4
f 354/6/4 355/6/4 359/6/4
f 359/6/4 355/6/4 360/6/4
f 361/2/4 362/2/4 363/2/4
f 361/2/4 363/2/4 365/2/4
f 363/2/4 364/2/4 365/2/4
f 365/2/4 364/2/4 366/2/4
f 366/2/4 364/2/4 367/2/4
f 366/3/4 367/3/4 368/3/4
f 368/3/4 367/3/4 369/3/4
f 370/1/4 371/1/4 373/1/4
f 372/1/4 373/1/4 375/1/4
f 374/1/4 375/1/4 376/1/4
f 373/1/4 371/1/4 377/1/4
f 376/1/4 375/1/4 377/1/4
f 375/1/4 373/1/4 377/1/4
f 381/2/5 379/2/5 378/2/5
f 382/2/5 381/2/5 380/2/5
f 383/2/5 379/2/5 381/2/5
f 383/2/5 381/2/5 382/2/5
f 384/2/5 379/2/5 383/2/5
f 385/2/5 379/2/5 384/2/5
f 389/2/5 387/2/5 386/2/5
f 390/2/5 387/2/5 389/2/5
f 392/2/5 389/2/5 388/2/5
f 393/2/5 389/2/5 392/2/5
f 396/2/5 392/2/5 391/2/5
f 397/2/5 392/2/5 396/2/5
f 399/2/5 395/2/5 394/2/5
f 400/2/5 395/2/5 399/2/5
f 401/2/5 398/2/5 397/2/5
f 402/2/5 398/2/5 401/2/5
f 404/2/5 403/2/5 402/2/5
f 405/2/5 403/2/5 404/2/5
f 411/2/5 407/2/5 406/2/5
f 412/2/5 407/2/5 411/2/5
f 413/2/5 409/2/5 408/2/5
f 414/2/5 409/2/5 413/2/5
f 416/2/5 411/2/5 410/2/5
f 417/2/5 411/2/5 416/2/5
f 420/4/5 415/4/5 414/4/5
f 421/4/5 415/4/5 420/4/5
f 422/2/5 418/2/5 417/2/5
f 423/2/5 418/2/5 422/2/5
f 424/2/5 420/2/5 419/2/5
f 425/2/5 420/2/5 424/2/5
f 428/1/5 427/1/5 426/1/5
f 429/1/5 427/1/5 428/1/5
f 432/3/5 431/3/5 430/3/5
f 433/3/5 431/3/5 432/3/5
f 438/2/5 435/2/5 434/2/5
f 439/2/5 435/2/5 438/2/5
f 440/2/5 435/2/5 439/2/5
f 441/2/5 435/2/5 440/2/5
f 442/4/5 437/4/5 436/4/5
f 443/4/5 437/4/5 442/4/5
f 448/3/5 445/3/5 444/3/5
f 449/3/5 445/3/5 448/3/5
f 450/1/5 447/1/5 446/1/5
f 451/1/5 447/1/5 450/1/5
f 454/1/5 453/1/5 452/1/5
f 455/1/5 453/1/5 454/1/5
f 456/1/5 453/1/5 455/1/5
f 457/1/5 456/1/5 455/1/5
f 458/1/5 456/1/5 457/1/5
f 462/1/5 460/1/5 459/1/5
f 463/1/5 460/1/5 462/1/5
f 464/1/5 462/1/5 461/1/5
f 464/1/5 463/1/5 462/1/5
f 465/1/5 463/1/5 464/1/5
f 468/1/5 467/1/5 466/1/5
f 469/1/5 467/1/5 468/1/5
f 471/1/5 470/1/5 469/1/5
f 472/1/5 470/1/5 471/1/5
f 476/1/5 474/1/5 473/1/5
f 477/1/5 474/1/5 476/1/5
f 478/1/5 476/1/5 475/1/5
f 479/1/5 476/1/5 478/1/5
f 480/2/6 481/2/6 482/2/6
f 482/2/6 481/2/6 483/2/6
f 483/2/6 481/2/6 484/2/6
f 484/2/6 481/2/6 485/2/6
f 486/2/6 487/2/6 489/2/6
f 487/3/6 488/3/6 490/3/6
f 489/2/6 487/2/6 490/2/6
f 490/3/6 488/3/6 491/3/6
f 492/4/6 493/4/6 494/4/6
f 494/4/6 493/4/6 495/4/6
f 496/2/6 497/2/6 499/2/6
f 497/3/6 498/3/6 500/3/6
f 499/2/6 497/2/6 500/2/6
f 500/3/6 498/3/6 501/3/6
f 502/1/6 503/1/6 505/1/6
f 505/1/6 503/1/6 506/1/6
f 504/2/6 505/2/6 510/2/6
f 510/2/6 505/2/6 511/2/6
f 507/6/6 508/6/6 512/6/6
f 512/6/6 508/6/6 513/6/6
f 509/2/6 510/2/6 515/2/6
f 515/2/6 510/2/6 516/2/6
f 513/4/6 514/4/6 519/4/6
f 519/4/6 514/4/6 520/4/6
f 516/2/6 517/2/6 521/2/6
f 521/2/6 517/2/6 522/2/6
f 518/6/6 519/6/6 524/6/6
f 524/6/6 519/6/6 525/6/6
f 522/1/6 523/1/6 526/1/6
f 526/1/6 523/1/6 527/1/6
f 528/1/6 529/1/6 530/1/6
f 530/1/6 529/1/6 531/1/6
f 531/1/6 529/1/6 532/1/6
f 532/1/6 529/1/6 533/1/6
f 531/1/6 532/1/6 534/1/6
f 534/1/6 532/1/6 535/1/6
f 535/2/6 536/2/6 539/2/6
f 539/2/6 536/2/6 540/2/6
f 537/2/6 538/2/6 543/2/6
f 543/2/6 538/2/6 544/2/6
f 541/2/6 542/2/6 546/2/6
f 546/2/6 542/2/6 547/2/6
f 545/2/6 546/2/6 549/2/6
f 549/2/6 546/2/6 550/2/6
f 548/1/6 549/1/6 552/1/6
f 552/1/6 549/1/6 553/1/6
f 551/1/6 552/1/6 555/1/6
f 553/1/6 554/1/6 555/1/6
f 552/1/6 553/1/6 555/1/6
f 555/1/6 554/1/6 556/1/6
f 557/5/6 558/5/6 560/5/6
f 560/5/6 558/5/6 561/5/6
f 559/2/6 560/2/6 562/2/6
f 560/2/6 561/2/6 562/2/6
f 562/2/6 561/2/6 563/2/6
